<?xml version="1.0" encoding="UTF-8"?>
<!-- Created with Inkscape (http://www.inkscape.org/) -->
<svg width="2645.83mm" height="2645.83mm" enable-background="new" version="1.1" viewBox="0 0 2645.83 2645.83" xmlns="http://www.w3.org/2000/svg" xmlns:cc="http://creativecommons.org/ns#" xmlns:dc="http://purl.org/dc/elements/1.1/" xmlns:osb="http://www.openswatchbook.org/uri/2009/osb" xmlns:rdf="http://www.w3.org/1999/02/22-rdf-syntax-ns#" xmlns:xlink="http://www.w3.org/1999/xlink">
    <title>MA Logo</title>
    <defs>
        <linearGradient id="linearGradient8038" x1="-2097.59" x2="2548.5" y1="171.677" y2="171.677" gradientUnits="userSpaceOnUse" xlink:href="#golden"/>
        <linearGradient id="golden">
            <stop stop-color="#232803" offset="0"/>
            <stop stop-color="#55490c" offset=".080316"/>
            <stop stop-color="#886a16" offset=".163606"/>
            <stop stop-color="#a68c29" offset=".224151"/>
            <stop stop-color="#ccb54a" offset=".284697"/>
            <stop stop-color="#ebdb66" offset=".345242"/>
            <stop stop-color="#f0e36b" offset=".382304"/>
            <stop stop-color="#f5ec70" offset=".414023"/>
            <stop stop-color="#e3d55e" offset=".467446"/>
            <stop stop-color="#d1be4c" offset=".516416"/>
            <stop stop-color="#c6ad3f" offset=".541681"/>
            <stop stop-color="#bb9c33" offset=".571953"/>
            <stop stop-color="#a88e2a" offset=".632499"/>
            <stop stop-color="#b99e37" offset=".662771"/>
            <stop stop-color="#caae44" offset=".698052"/>
            <stop stop-color="#d2bc4d" offset=".728325"/>
            <stop stop-color="#daca56" offset=".75793"/>
            <stop stop-color="#d5c24f" offset=".787201"/>
            <stop stop-color="#d0bb49" offset=".817474"/>
            <stop stop-color="#bb9c33" offset=".878019"/>
            <stop stop-color="#896c1a" offset=".934891"/>
            <stop stop-color="#564a0e" offset=".973289"/>
            <stop stop-color="#232803" offset="1"/>
        </linearGradient>
        <linearGradient id="linearGradient4692" x1="5e3" x2="4999.97" y1="-7330" y2="8731.95" gradientUnits="userSpaceOnUse">
            <stop offset="0"/>
            <stop stop-color="#5d0000" offset=".459098"/>
            <stop stop-color="#ba0000" offset=".594324"/>
            <stop stop-color="#dd4519" offset=".677796"/>
            <stop stop-color="#ff8b32" offset=".809683"/>
            <stop stop-color="#fcbd22" offset=".853088"/>
            <stop stop-color="#f8ef13" offset=".899833"/>
            <stop stop-color="#f9f374" offset=".948247"/>
            <stop stop-color="#f9f7d4" offset="1"/>
        </linearGradient>
        <linearGradient id="linearGradient4694" x1="-2097.59" x2="2548.5" y1="171.677" y2="171.677" gradientUnits="userSpaceOnUse" xlink:href="#golden"/>
    </defs>
    <metadata>
        <rdf:RDF>
            <cc:Work rdf:about="">
                <dc:format>image/svg+xml</dc:format>
                <dc:type rdf:resource="http://purl.org/dc/dcmitype/StillImage"/>
                <dc:title>MA Logo</dc:title>
            </cc:Work>
        </rdf:RDF>
    </metadata>
    <g transform="translate(-9.19655e-5 -9.19598e-5)" display="none">
        <rect x="31.8989" y="31.8987" width="2582.04" height="2582.04" fill="#000003" stroke="#000" stroke-linecap="square" stroke-miterlimit="8" stroke-width="63.7977" style="paint-order:normal"/>
    </g>
    <g transform="translate(1213.88 1151.24)" display="none">
        <path d="m105.432 0.678599a104.596 104.596 0 0 0-104.596 104.596 104.596 104.596 0 0 0 104.596 104.596 104.596 104.596 0 0 0 104.596-104.596 104.596 104.596 0 0 0-104.596-104.596zm0 6.56929a98.0269 98.0269 0 0 1 59.2573 20.0919h-36.0059l-23.2576 51.9926-23.2576-51.9926h-36.0661a98.0269 98.0269 0 0 1 59.3298-20.0919zm62.137 22.2813a98.0269 98.0269 0 0 1 35.8899 75.7456 98.0269 98.0269 0 0 1-35.8899 75.7305zm-124.274 0.015017v151.476a98.0269 98.0269 0 0 1-35.8893-75.745 98.0269 98.0269 0 0 1 35.8893-75.7305zm27.3561 23.8654 23.1793 51.8454-23.1793 51.8454zm69.5748 0v103.691l-23.2037-51.8454zm-34.7996 77.7681 5.49349 12.281h-10.987zm-13.5894 30.3798h27.1788l9.68578 21.6522h36.0604a98.0269 98.0269 0 0 1-59.3293 20.0919 98.0269 98.0269 0 0 1-59.2573-20.0919h35.9759z" fill-opacity="0" stroke="#000" stroke-linecap="square" stroke-miterlimit="8" stroke-width="1.06128" style="paint-order:normal"/>
    </g>
    <g transform="translate(1213.88 1151.24)" display="none">
        <path d="m109.036-1144.56c-349.088-2e-4 -683.879 138.675-930.722 385.517-246.843 246.843-385.517 581.633-385.517 930.722-4e-4 349.088 138.674 683.879 385.517 930.722 246.843 246.843 581.633 385.518 930.722 385.517 349.089 7e-4 683.88-138.674 930.723-385.517 246.843-246.843 385.518-581.634 385.518-930.722 3e-4 -349.089-138.675-683.88-385.518-930.722-246.843-246.843-581.634-385.517-930.723-385.517zm0 82.6682c269.511 0.5558 531.424 89.3603 745.695 252.836h-453.099l-292.674 654.275-292.674-654.275h-453.856c214.52-163.665 476.784-252.48 746.607-252.836zm781.933 280.387c285.642 234.101 451.369 583.867 451.639 953.183-0.3271 369.25-166.049 718.935-451.639 952.994zm-1563.87 1906.36c-285.637-234.101-451.361-583.864-451.631-953.177 0.3251-369.248 166.044-718.934 451.631-952.994 2e-5 635.89 1e-5 1270.28 1e-5 1906.17zm344.249-1605.84 291.689 652.423-291.689 652.424zm875.53 0v1304.85l-291.995-652.424zm-437.918 978.635 69.1301 154.544h-138.26zm-171.009 382.3h342.019l121.886 272.471h453.784c-214.519 163.661-476.781 252.474-746.601 252.83-269.511-0.5559-531.423-89.3603-745.694-252.836h452.721z" display="inline" fill="url(#linearGradient8038)" fill-rule="evenodd" stroke="#000" stroke-linecap="square" stroke-miterlimit="8" stroke-width="13.355" style="paint-order:normal"/>
    </g>
    <g transform="translate(1213.88 1151.24)" display="none" fill-rule="evenodd" stroke="#000" stroke-linecap="square" stroke-miterlimit="8">
        <path d="m1343.33 171.681a1234.29 1234.29 0 0 1-1234.29 1234.29 1234.29 1234.29 0 0 1-1234.29-1234.29 1234.29 1234.29 0 0 1 1234.29-1234.29 1234.29 1234.29 0 0 1 1234.29 1234.29zm-1234.29-1316.24a1316.24 1316.24 0 0 0-1316.24 1316.24 1316.24 1316.24 0 0 0 1316.24 1316.24 1316.24 1316.24 0 0 0 1316.24-1316.24 1316.24 1316.24 0 0 0-1316.24-1316.24z" display="inline" fill="url(#linearGradient4694)" stroke-width="13.3551" style="paint-order:normal"/>
        <path transform="matrix(.264583 0 0 .264583 -1213.88 -1151.24)" d="m4999.7 6232.01-261.279 584.102h522.559zm1655.12-3698.78-1103.6 2465.85 1103.6 2465.85zm-3309.09 0v4931.71l1102.45-2465.85zm2760.12-1239.91-1106.15 2472.82-1106.15-2472.82h-1848.93v104.826l0.018-0.016v0.023c0.049 2432.59-0.059 4883.78-0.018 7308.56h1848.08l460.668-1029.79h1292.67l460.66 1029.79h1848.64v-7413.39z" display="inline" fill="url(#linearGradient4692)" stroke-width="50.476" style="paint-order:normal"/>
    </g>
    <g transform="translate(1213.88 1151.24)">
        <path d="m109.036-1144.56c-349.088-2e-4 -683.879 138.675-930.722 385.517-246.843 246.843-385.517 581.633-385.517 930.722-4e-4 349.088 138.674 683.879 385.517 930.722 246.843 246.843 581.633 385.518 930.722 385.517 349.089 7e-4 683.88-138.674 930.723-385.517 246.843-246.843 385.518-581.634 385.518-930.722 3e-4 -349.089-138.675-683.88-385.518-930.722-246.843-246.843-581.634-385.517-930.723-385.517zm0 82.6682c269.511 0.5558 531.424 89.3603 745.695 252.836h-453.099l-292.674 654.275-292.674-654.275h-453.856c214.52-163.665 476.784-252.48 746.607-252.836zm781.933 280.387c285.642 234.101 451.369 583.867 451.639 953.183-0.3271 369.25-166.049 718.935-451.639 952.994zm-1563.87 1906.36c-285.637-234.101-451.361-583.864-451.631-953.177 0.3251-369.248 166.044-718.934 451.631-952.994 2e-5 635.463 1e-5 1270.71 1e-5 1906.17zm344.249-1605.84 291.689 652.423-291.689 652.424zm875.53 0v1304.85l-291.995-652.424zm-437.918 978.635 69.1301 154.544h-138.26zm-171.009 382.3h342.019l121.886 272.471h453.784c-214.519 163.661-476.781 252.474-746.601 252.83-269.511-0.5559-531.423-89.3603-745.694-252.836h452.721z" fill="none" stroke="#000" stroke-linecap="square" stroke-miterlimit="8" stroke-width="13.3551" style="paint-order:normal"/>
    </g>
</svg>
