<?xml version="1.0" encoding="UTF-8"?>
<!-- Created with Inkscape (http://www.inkscape.org/) -->
<svg width="2645.83mm" height="2645.83mm" enable-background="new" version="1.1" viewBox="0 0 2645.83 2645.83" xmlns="http://www.w3.org/2000/svg" xmlns:cc="http://creativecommons.org/ns#" xmlns:dc="http://purl.org/dc/elements/1.1/" xmlns:osb="http://www.openswatchbook.org/uri/2009/osb" xmlns:rdf="http://www.w3.org/1999/02/22-rdf-syntax-ns#" xmlns:xlink="http://www.w3.org/1999/xlink">
    <title>MA Logo</title>
    <metadata>
        <rdf:RDF>
            <cc:Work rdf:about="">
                <dc:format>image/svg+xml</dc:format>
                <dc:type rdf:resource="http://purl.org/dc/dcmitype/StillImage"/>
                <dc:title>MA Logo</dc:title>
            </cc:Work>
        </rdf:RDF>
    </metadata>
    <g transform="translate(1213.88 1151.24)">
        <path d="m109.036-1144.56c-349.088-2e-4 -683.879 138.675-930.722 385.517-246.843 246.843-385.517 581.633-385.517 930.722-4e-4 349.088 138.674 683.879 385.517 930.722 246.843 246.843 581.633 385.518 930.722 385.517 349.089 7e-4 683.88-138.674 930.723-385.517 246.843-246.843 385.518-581.634 385.518-930.722 3e-4 -349.089-138.675-683.88-385.518-930.722-246.843-246.843-581.634-385.517-930.723-385.517zm0 82.6682c269.511 0.5558 531.424 89.3603 745.695 252.836h-453.099l-292.674 654.275-292.674-654.275h-453.856c214.52-163.665 476.784-252.48 746.607-252.836zm781.933 280.387c285.642 234.101 451.369 583.867 451.639 953.183-0.3271 369.25-166.049 718.935-451.639 952.994zm-1563.87 1906.36c-285.637-234.101-451.361-583.864-451.631-953.177 0.3251-369.248 166.044-718.934 451.631-952.994 2e-5 635.463 1e-5 1270.71 1e-5 1906.17zm344.249-1605.84 291.689 652.423-291.689 652.424zm875.53 0v1304.85l-291.995-652.424zm-437.918 978.635 69.1301 154.544h-138.26zm-171.009 382.3h342.019l121.886 272.471h453.784c-214.519 163.661-476.781 252.474-746.601 252.83-269.511-0.5559-531.423-89.3603-745.694-252.836h452.721z" fill="none" stroke="#000" stroke-linecap="square" stroke-miterlimit="8" stroke-width="13.3551" style="paint-order:normal"/>
    </g>
</svg>
