<?xml version="1.0" encoding="UTF-8"?>
<!-- Created with Inkscape (http://www.inkscape.org/) -->
<svg width="512" height="512" viewBox="-1000 -1000 1000 1000" xmlns="http://www.w3.org/2000/svg">
  <title>MA Logo</title>
  <path
    style="fill:none;stroke:#000;stroke-width:5.04855394;stroke-linecap:square;stroke-miterlimit:8;paint-order:normal"
    d="M-500.00034,-997.47617A497.47569,497.47569 0 00-997.47635,-500.00023 497.47569,497.47569 0 00-500.00034,-2.5238256 497.47569,497.47569 0 00-2.5236455,-500.00023 497.47569,497.47569 0 00-500.00034,-997.47617Zm0,31.24466a466.23174,466.23174 0 01281.83745,95.55988h-171.25009l-110.61684,247.2851-110.6168,-247.2851h-171.53601a466.23174,466.23174 0 01282.18229,-95.55988zm295.53355,105.97297a466.23174,466.23174 0 01170.698364,360.25831 466.23174,466.23174 0 01-170.698364,360.18672zm-591.06946,0.0738v720.4403a466.23174,466.23174 0 01-170.69527,-360.25579 466.23174,466.23174 0 01170.69527,-360.1868zm130.1099,113.50799 110.24462,246.58517-110.24462,246.58535zm330.90889,0v493.17052l-110.36045,-246.58542zm-165.51236,369.87779 26.12791,58.41014h-52.2559zm-64.63349,144.49119h129.26691l46.06726,102.98135h171.50886a466.23174,466.23174 0 01-282.18006,95.557925 466.23174,466.23174 0 01-281.83727,-95.560155h171.10726z"
  />
</svg>
