<?xml version="1.0" standalone="no"?>
<!DOCTYPE svg PUBLIC "-//W3C//DTD SVG 20010904//EN"
 "http://www.w3.org/TR/2001/REC-SVG-20010904/DTD/svg10.dtd">
<svg version="1.0" xmlns="http://www.w3.org/2000/svg"
 width="1378.000000pt" height="1378.000000pt" viewBox="0 0 1378.000000 1378.000000"
 preserveAspectRatio="xMidYMid meet">
<metadata>
Created by potrace 1.14, written by Peter Selinger 2001-2017
</metadata>
<g transform="translate(0.000000,1378.000000) scale(0.100000,-0.100000)"
fill="#000000" stroke="none">
<path d="M2550 6883 l0 -6882 4344 0 4345 -1 0 6480 c0 4183 -3 6480 -9 6480
-6 0 -10 -4 -10 -10 0 -5 -5 -10 -11 -10 -6 0 -17 -6 -24 -12 -31 -28 -44 -38
-50 -38 -10 0 -100 -63 -103 -72 -2 -4 -10 -8 -18 -8 -8 0 -14 -4 -14 -10 0
-5 -6 -10 -13 -10 -7 0 -23 -9 -35 -20 -12 -11 -24 -20 -27 -20 -9 0 -110 -72
-113 -82 -2 -4 -8 -8 -13 -8 -11 0 -163 -102 -167 -112 -2 -5 -10 -8 -18 -8
-9 0 -13 -4 -10 -8 3 -5 0 -9 -7 -9 -15 -1 -181 -112 -185 -124 -2 -5 -10 -9
-17 -9 -8 0 -19 -8 -24 -17 -6 -10 -11 -15 -11 -10 0 10 -181 -110 -197 -131
-7 -9 -13 -13 -13 -9 0 9 -132 -81 -142 -97 -5 -6 -8 -7 -8 -1 0 6 -7 2 -14
-8 -8 -10 -16 -17 -18 -16 -3 3 -59 -31 -68 -41 -3 -3 -32 -23 -65 -45 -33
-21 -61 -42 -63 -47 -2 -4 -8 -8 -12 -8 -5 0 -30 -15 -55 -32 -26 -18 -54 -37
-63 -43 -10 -5 -38 -25 -64 -42 -26 -18 -51 -33 -56 -33 -6 0 -12 -7 -16 -15
-3 -8 -12 -15 -21 -15 -8 0 -15 -4 -15 -9 0 -5 -8 -12 -18 -15 -10 -4 -27 -14
-38 -24 -10 -9 -31 -23 -46 -31 -15 -8 -37 -22 -47 -33 -11 -10 -24 -18 -29
-18 -5 0 -21 -11 -36 -25 -14 -13 -27 -24 -29 -24 -13 2 -35 -16 -30 -25 3 -6
3 -8 -1 -4 -8 7 -375 -234 -388 -255 -4 -7 -8 -8 -8 -4 0 7 -84 -46 -100 -63
-3 -3 -33 -23 -67 -45 -35 -22 -63 -43 -63 -47 0 -5 -5 -8 -10 -8 -12 0 -251
-160 -262 -175 -5 -7 -8 -7 -8 0 0 6 -3 6 -8 -1 -9 -13 -230 -164 -240 -164
-4 0 -15 -8 -24 -17 -8 -10 -41 -33 -72 -52 -31 -18 -56 -37 -56 -42 0 -5 -5
-9 -10 -9 -11 0 -234 -145 -264 -172 -11 -10 -24 -18 -28 -18 -5 0 -21 -11
-36 -25 -15 -14 -32 -25 -39 -25 -7 0 -13 -4 -13 -10 0 -5 -7 -10 -15 -10 -9
0 -18 -7 -21 -15 -4 -8 -10 -15 -16 -15 -5 0 -30 -15 -56 -32 -26 -18 -54 -37
-64 -43 -9 -5 -37 -25 -63 -42 -25 -18 -48 -33 -51 -33 -3 0 -12 -6 -19 -12
-26 -24 -41 -35 -50 -39 -22 -9 -440 -293 -443 -301 -2 -4 -8 -8 -13 -8 -11 0
-72 -42 -77 -52 -2 -5 -10 -8 -17 -8 -7 0 -27 -13 -44 -29 -16 -15 -32 -26
-35 -23 -3 2 -12 -2 -20 -9 -27 -24 -40 -34 -81 -59 -22 -13 -49 -32 -59 -42
-11 -10 -25 -18 -32 -18 -7 0 -17 -6 -21 -13 -4 -8 -15 -17 -23 -21 -39 -18
-59 -33 -53 -39 3 -4 1 -7 -6 -7 -13 0 -115 -64 -139 -87 -7 -7 -17 -13 -21
-13 -7 0 -22 -11 -68 -50 -7 -5 -15 -10 -18 -10 -10 0 -130 -83 -133 -92 -2
-4 -9 -8 -15 -8 -7 0 -25 -11 -41 -25 -16 -14 -36 -25 -44 -25 -9 0 -12 -3 -9
-7 7 -6 -23 -27 -55 -39 -10 -3 -18 -10 -18 -15 0 -5 -7 -9 -15 -9 -8 0 -15
-4 -15 -10 0 -21 -16 -9 -40 30 -14 22 -28 40 -33 40 -4 0 -5 5 -2 10 3 6 1
10 -4 10 -6 0 -11 7 -11 15 0 9 -7 18 -15 21 -8 4 -15 10 -15 15 0 19 -87 139
-95 131 -5 -4 -5 -2 -2 5 4 6 1 18 -7 26 -8 8 -12 17 -9 21 4 3 1 6 -5 6 -7 0
-12 5 -12 11 0 11 -50 82 -62 87 -5 2 -8 8 -8 14 0 12 -61 102 -72 106 -4 2
-6 8 -2 13 3 5 0 9 -5 9 -6 0 -11 7 -11 15 0 9 -7 18 -15 21 -8 4 -15 11 -15
16 0 5 -22 42 -50 82 -27 40 -50 77 -50 83 0 6 -3 13 -8 15 -11 4 -72 90 -72
101 0 4 -6 14 -12 22 -24 25 -43 50 -57 77 -8 15 -19 25 -24 21 -6 -4 -7 -1
-2 7 5 8 2 18 -6 24 -16 13 -33 38 -51 76 -7 14 -15 27 -18 30 -17 15 -70 96
-70 106 0 7 -3 14 -8 16 -13 5 -72 91 -72 105 0 7 -5 13 -11 13 -5 0 -17 16
-25 35 -8 19 -18 35 -23 35 -6 0 -12 8 -15 18 -4 10 -14 27 -24 38 -22 26 -39
53 -55 87 -7 15 -16 24 -20 20 -4 -3 -7 -1 -7 5 0 18 -91 152 -103 152 -6 0
-7 3 -4 6 5 6 -25 58 -43 74 -3 3 -14 21 -24 40 -11 19 -24 40 -28 45 -24 29
-88 127 -88 135 0 4 -3 10 -7 12 -8 3 -62 81 -73 103 -3 6 -25 39 -50 74 -25
35 -43 66 -42 69 2 3 0 8 -6 11 -5 3 -29 35 -53 71 -24 36 -47 67 -51 68 -5 2
-8 7 -8 12 0 12 -101 164 -112 168 -4 2 -6 7 -4 11 3 4 -8 22 -24 39 -16 18
-27 32 -24 32 5 0 -34 59 -46 70 -3 3 -14 21 -24 40 -11 19 -22 37 -25 40 -3
3 -28 39 -55 80 -27 41 -53 77 -58 78 -4 2 -8 8 -8 12 0 12 -261 404 -271 408
-5 2 -9 8 -9 13 0 13 -81 133 -92 137 -4 2 -6 7 -4 11 3 4 -8 22 -24 39 -16
18 -27 32 -24 32 5 0 -34 59 -46 70 -3 3 -14 21 -24 40 -11 19 -22 37 -25 40
-11 9 -126 185 -123 188 1 1 -7 12 -18 24 -11 12 -20 28 -20 35 0 8 -4 11 -10
8 -5 -3 -10 0 -10 8 0 8 -11 26 -24 40 -13 14 -22 28 -20 30 3 2 -2 10 -11 17
-8 7 -15 19 -15 26 0 8 -3 14 -8 14 -4 0 -16 16 -26 35 -11 19 -23 35 -28 35
-4 0 -8 7 -8 15 0 8 -4 15 -9 15 -5 0 -11 8 -15 18 -11 32 -43 81 -50 75 -3
-3 -6 4 -6 16 0 12 -4 20 -8 17 -4 -2 -13 7 -20 22 -7 15 -21 38 -32 52 -19
25 -20 -10 -20 -6857z m7556 3847 c0 -61 3 -100 9 -100 7 0 7 -3 0 -8 -5 -4
-10 -38 -10 -77 0 -38 5 -73 10 -77 7 -5 7 -8 0 -8 -6 0 -10 -58 -10 -155 0
-97 4 -155 10 -155 7 0 7 -3 0 -8 -6 -4 -10 -69 -10 -157 0 -88 4 -153 10
-157 7 -5 7 -8 0 -8 -6 0 -10 -58 -10 -155 0 -97 4 -155 10 -155 7 0 7 -3 0
-8 -6 -4 -10 -69 -10 -157 0 -88 4 -153 10 -157 7 -5 7 -8 0 -8 -6 0 -10 -58
-10 -155 0 -97 4 -155 10 -155 7 0 7 -3 0 -8 -6 -4 -10 -69 -10 -157 0 -88 4
-153 10 -157 7 -5 7 -8 0 -8 -6 0 -10 -58 -10 -155 0 -97 4 -155 10 -155 7 0
7 -3 0 -8 -6 -4 -10 -69 -10 -157 0 -88 4 -153 10 -157 7 -5 7 -8 0 -8 -6 0
-10 -58 -10 -155 0 -97 4 -155 10 -155 7 0 7 -3 0 -8 -6 -4 -10 -69 -10 -157
0 -88 4 -153 10 -157 7 -5 7 -8 0 -8 -6 0 -10 -58 -10 -155 0 -97 4 -155 10
-155 7 0 7 -3 0 -8 -6 -4 -10 -69 -10 -157 0 -88 4 -153 10 -157 7 -5 7 -8 0
-8 -6 0 -10 -58 -10 -155 0 -97 4 -155 10 -155 7 0 7 -3 0 -8 -6 -4 -10 -69
-10 -157 0 -88 4 -153 10 -157 7 -5 7 -8 0 -8 -6 0 -10 -58 -10 -155 0 -97 4
-155 10 -155 7 0 7 -3 0 -8 -6 -4 -10 -69 -10 -157 0 -88 4 -153 10 -157 7 -5
7 -8 0 -8 -6 0 -10 -58 -10 -155 0 -97 4 -155 10 -155 7 0 7 -3 0 -8 -6 -4
-10 -69 -10 -157 0 -88 4 -153 10 -157 7 -5 7 -8 0 -8 -6 0 -10 -58 -10 -155
0 -97 4 -155 10 -155 7 0 7 -3 0 -8 -6 -4 -10 -69 -10 -157 0 -88 4 -153 10
-157 7 -5 7 -8 0 -8 -6 0 -10 -58 -10 -155 0 -97 4 -155 10 -155 7 0 7 -3 0
-8 -6 -4 -10 -127 -10 -332 0 -205 4 -328 10 -332 7 -5 7 -8 0 -8 -12 0 -12
-600 0 -620 5 -7 -3 -5 -17 6 -15 10 -25 21 -25 24 2 7 -76 124 -85 128 -5 2
-8 9 -8 16 0 7 -9 21 -20 31 -11 10 -18 21 -15 23 3 3 -7 18 -22 34 -15 15
-24 28 -20 28 4 0 -9 21 -28 46 -20 26 -43 60 -51 75 -8 16 -18 29 -22 29 -5
0 -14 16 -22 35 -7 19 -16 33 -18 30 -3 -2 -12 10 -21 28 -9 17 -22 31 -30 29
-7 -1 -10 2 -6 7 6 11 -37 83 -67 114 -10 10 -16 22 -13 27 3 5 -3 15 -15 22
-11 7 -20 17 -20 21 0 11 -72 121 -82 125 -5 2 -8 10 -8 17 0 8 -8 19 -17 24
-10 6 -14 11 -10 11 5 0 -5 18 -22 39 -17 21 -31 44 -31 49 0 6 -6 17 -14 24
-7 8 -45 63 -85 123 -80 123 -100 153 -118 171 -7 7 -13 16 -13 20 0 10 -73
118 -82 122 -5 2 -8 8 -8 13 0 10 -62 103 -72 107 -5 2 -8 10 -8 17 0 8 -8 19
-17 24 -10 6 -14 11 -10 11 5 0 -5 17 -22 39 -17 21 -28 41 -24 45 3 3 2 6 -3
6 -6 0 -23 22 -39 50 -17 27 -33 50 -37 50 -5 0 -8 7 -8 15 0 9 -6 18 -14 21
-8 3 -19 19 -25 35 -5 16 -15 29 -20 29 -6 0 -11 4 -11 10 0 13 -99 164 -111
168 -5 2 -9 8 -9 14 0 6 -11 26 -25 43 -13 18 -21 35 -18 39 4 3 2 6 -3 6 -6
0 -23 22 -39 50 -17 27 -33 50 -37 50 -5 0 -8 6 -8 13 0 7 -9 20 -20 30 -12
10 -18 22 -15 27 3 5 -3 15 -15 22 -11 7 -20 17 -20 21 0 13 -104 167 -112
167 -5 0 -8 5 -8 12 0 6 -11 26 -25 43 -13 18 -21 35 -18 39 4 3 2 6 -3 6 -6
0 -23 22 -39 50 -17 27 -33 50 -37 50 -5 0 -8 7 -8 15 0 9 -7 18 -15 21 -8 4
-15 12 -15 18 0 7 -9 22 -20 34 -11 12 -20 24 -20 27 0 9 -74 120 -82 123 -5
2 -8 9 -8 15 0 7 -21 39 -45 71 -25 33 -45 65 -45 72 0 7 -3 14 -7 16 -13 5
-65 78 -56 78 4 0 3 4 -2 8 -6 4 -22 23 -35 42 -13 19 -29 38 -35 42 -6 5 -6
8 0 8 6 0 6 3 0 8 -6 4 -26 32 -45 62 -19 30 -38 57 -42 58 -5 2 -8 10 -8 18
0 8 -7 17 -15 20 -8 4 -15 12 -15 18 0 7 -9 22 -20 34 -11 12 -20 24 -20 27 0
9 -74 120 -82 123 -5 2 -8 10 -8 18 0 8 -7 17 -15 20 -8 4 -15 11 -15 17 0 5
-11 25 -25 43 -14 18 -25 35 -25 37 0 6 -111 171 -119 177 -4 3 -17 26 -31 52
-13 26 -27 45 -31 42 -4 -2 -12 10 -18 26 -5 17 -15 30 -20 30 -6 0 -11 5 -11
10 0 11 -195 310 -208 320 -4 3 -12 14 -18 25 -32 58 -40 71 -51 78 -7 4 -13
13 -13 18 0 11 -49 79 -65 91 -5 4 -6 8 -2 8 4 0 -8 21 -28 46 -19 26 -35 53
-35 61 0 8 -4 11 -10 8 -5 -3 -10 -1 -10 6 0 7 -11 27 -26 46 -14 18 -21 33
-17 33 4 0 3 4 -3 8 -6 4 -30 36 -54 72 -24 36 -48 68 -54 72 -7 5 -7 8 -1 8
6 0 3 6 -5 13 -17 14 -36 42 -50 75 -5 12 -14 22 -20 22 -5 0 -10 6 -10 13 0
7 -9 23 -20 35 -11 12 -20 24 -20 27 0 9 -262 400 -274 407 -6 4 -7 8 -2 8 5
0 1 9 -9 20 -18 19 -14 57 5 45 5 -3 10 -1 10 5 0 5 16 18 35 27 19 9 31 21
28 26 -3 6 -2 7 4 4 5 -3 22 5 38 19 15 13 34 24 42 24 7 0 13 5 13 10 0 6 5
10 10 10 6 0 20 9 32 20 12 11 28 20 35 20 7 0 13 4 13 8 0 5 17 18 38 29 20
12 46 30 57 40 11 10 36 27 55 37 31 18 105 69 137 96 7 5 14 10 17 10 7 0 98
62 114 77 7 7 17 13 21 13 7 0 23 12 68 50 7 6 14 9 15 8 2 -2 42 24 91 57 48
33 105 71 126 85 156 101 241 163 235 172 -4 7 -2 8 4 4 12 -7 75 30 135 79 7
6 24 16 40 24 15 8 27 18 27 23 0 4 6 8 13 8 7 0 22 8 33 18 11 11 24 21 29
23 30 13 85 52 85 61 0 5 5 6 10 3 6 -3 10 -1 10 4 0 6 5 11 10 11 19 0 69 43
63 53 -3 6 -1 7 5 3 11 -7 82 31 82 44 0 4 11 11 25 14 14 4 25 11 25 16 0 6
6 10 13 10 6 1 28 14 47 30 19 17 38 30 43 30 4 0 17 9 29 20 12 11 28 20 35
20 7 0 13 3 13 8 0 4 16 16 35 26 19 11 35 22 35 26 0 4 14 13 30 20 17 7 30
16 30 21 0 4 9 11 20 14 11 3 26 12 32 18 22 21 126 87 137 87 6 0 11 4 11 9
0 5 22 23 48 39 26 16 55 37 65 46 9 9 18 15 20 14 3 -2 19 8 37 22 18 14 34
24 37 22 3 -2 13 5 46 34 7 6 33 23 60 38 26 15 47 32 47 37 0 5 3 8 8 7 12
-5 52 28 44 36 -4 4 -2 7 3 5 14 -4 65 22 65 33 0 5 4 7 9 4 5 -4 11 -2 13 2
4 11 228 162 239 162 5 0 9 4 9 9 0 5 10 13 22 17 12 3 30 16 40 28 9 11 17
17 18 13 0 -8 13 1 50 35 10 9 20 14 23 12 2 -2 16 7 31 21 14 13 30 25 34 25
4 0 15 7 25 15 9 8 19 15 22 15 9 0 110 73 122 88 7 9 16 13 19 9 4 -4 15 3
25 15 11 11 19 17 19 13 0 -5 10 0 23 11 12 11 50 38 84 60 35 21 63 42 63 47
0 4 5 7 10 7 6 0 16 5 23 10 20 18 82 59 88 60 4 0 6 -45 5 -100z m-6406 -726
c0 -8 4 -14 9 -14 5 0 14 -14 21 -30 7 -17 21 -36 30 -43 10 -7 18 -16 19 -22
4 -27 13 -45 22 -40 5 4 9 0 9 -7 0 -15 59 -100 72 -106 5 -2 6 -8 2 -13 -3
-5 -1 -9 5 -9 5 0 13 -10 17 -22 6 -21 15 -33 46 -68 9 -10 14 -20 12 -23 -2
-2 7 -16 21 -31 14 -15 25 -30 25 -33 0 -13 72 -113 81 -113 5 0 8 -3 7 -7 -4
-16 14 -53 23 -48 5 4 9 1 9 -6 0 -15 69 -119 79 -119 4 0 8 -6 8 -12 0 -7 21
-43 46 -79 26 -37 47 -70 47 -74 0 -3 6 -12 13 -20 28 -30 46 -55 39 -55 -4 0
1 -7 11 -14 10 -8 19 -18 19 -23 2 -15 50 -83 60 -83 5 0 7 -4 4 -8 -5 -9 51
-94 66 -100 5 -2 6 -8 2 -13 -3 -5 2 -12 10 -15 9 -3 13 -10 10 -15 -3 -5 2
-12 10 -15 9 -3 14 -9 11 -13 -2 -4 7 -19 21 -34 14 -15 22 -27 19 -27 -8 0
65 -102 80 -112 6 -5 6 -8 0 -8 -5 0 -1 -7 9 -15 11 -8 16 -15 10 -15 -5 0 0
-7 10 -15 11 -8 17 -15 13 -15 -3 0 18 -36 48 -80 30 -44 55 -84 55 -90 0 -6
5 -8 10 -5 6 3 10 -1 10 -9 0 -9 9 -25 20 -36 11 -11 20 -25 20 -32 0 -6 7
-18 15 -27 8 -9 32 -41 52 -71 20 -30 40 -57 45 -58 4 -2 6 -8 2 -13 -3 -5 2
-12 10 -15 9 -3 13 -10 10 -15 -3 -5 2 -12 10 -15 9 -3 14 -9 11 -13 -2 -4 8
-21 23 -38 15 -17 28 -35 29 -42 2 -6 19 -33 38 -60 19 -26 35 -53 35 -58 0
-5 11 -20 25 -33 14 -13 25 -29 25 -37 0 -7 4 -13 10 -13 5 0 12 -11 16 -25 3
-14 9 -25 13 -25 4 0 15 -15 26 -32 19 -33 28 -46 53 -73 7 -8 10 -15 7 -15
-4 0 7 -18 24 -39 17 -21 31 -44 31 -49 0 -6 6 -15 13 -19 6 -4 18 -20 26 -35
8 -15 21 -36 30 -45 9 -10 22 -31 28 -46 7 -15 20 -30 28 -33 8 -4 13 -9 10
-14 -2 -4 7 -22 21 -41 14 -19 30 -44 35 -56 5 -13 13 -23 19 -23 5 0 10 -5
10 -10 0 -10 8 -21 37 -54 7 -8 9 -16 6 -20 -3 -3 2 -8 11 -12 9 -3 14 -10 11
-14 -2 -4 4 -15 15 -25 11 -10 20 -24 20 -32 0 -7 7 -16 15 -19 8 -4 15 -10
15 -15 0 -5 32 -57 70 -114 39 -57 70 -107 70 -110 0 -3 11 -18 25 -33 14 -15
25 -30 25 -35 0 -7 9 -20 38 -52 6 -7 12 -19 12 -25 0 -6 6 -18 13 -26 6 -8
17 -20 22 -27 6 -7 35 -50 65 -96 30 -46 60 -90 68 -97 7 -7 13 -17 14 -21 1
-13 24 -43 29 -38 3 2 6 -5 6 -17 1 -12 6 -24 11 -27 13 -9 152 -219 152 -230
0 -5 4 -11 8 -13 12 -5 72 -95 72 -108 0 -6 5 -8 10 -5 6 3 10 0 10 -7 0 -7
14 -31 30 -52 17 -22 30 -44 30 -49 0 -5 10 -18 22 -28 11 -11 18 -19 14 -19
-7 0 8 -20 55 -77 5 -7 7 -13 4 -13 -4 0 6 -17 22 -37 16 -21 47 -66 69 -100
21 -35 42 -63 47 -63 4 0 7 -7 7 -15 0 -9 11 -27 24 -40 13 -13 22 -26 20 -28
-2 -2 6 -15 18 -29 13 -14 24 -32 26 -39 2 -8 8 -18 15 -24 7 -5 18 -22 26
-37 8 -15 19 -24 25 -21 6 3 8 3 4 -2 -9 -9 19 -65 32 -65 6 0 10 -6 10 -14 0
-8 6 -21 13 -28 22 -24 187 -278 187 -289 0 -5 4 -7 10 -4 6 3 10 -1 10 -9 0
-9 3 -16 8 -16 4 0 13 -14 20 -30 8 -18 18 -27 25 -23 7 3 9 2 4 -2 -4 -5 0
-19 8 -32 l15 -23 -57 -1 c-61 0 -3499 0 -3521 1 -7 0 -11 4 -7 9 3 5 1 12 -5
16 -6 4 -7 11 -3 18 10 16 10 197 -1 197 -5 0 -3 7 4 15 10 12 10 15 -1 15 -9
0 -10 3 -4 8 13 9 16 42 3 42 -5 0 -6 6 -1 13 11 17 10 41 -2 49 -6 5 -5 8 4
8 10 0 11 3 3 13 -7 8 -7 18 -2 27 5 8 4 22 -2 33 -8 15 -7 18 4 11 11 -6 11
-5 -1 9 -7 10 -9 17 -3 17 11 0 10 25 -1 36 -4 4 -3 12 2 18 14 17 14 28 -1
37 -8 6 -9 9 -1 9 9 0 11 19 3 40 -1 3 -1 10 0 15 8 30 4 165 -5 165 -7 0 -7
3 0 8 6 4 10 14 10 22 0 8 -4 18 -10 22 -7 5 -6 8 1 8 11 0 11 70 0 89 -4 6
-3 11 3 11 10 0 9 25 -2 36 -4 4 -1 14 6 22 14 18 13 22 -5 33 -8 6 -9 9 -1 9
9 0 11 19 3 40 -1 3 -1 10 0 15 7 32 6 65 -2 65 -6 0 -5 7 2 15 10 12 10 15
-1 15 -9 0 -10 3 -4 8 13 9 16 42 3 42 -5 0 -6 6 -2 12 12 19 12 48 0 48 -6 0
-5 4 3 9 9 6 10 11 2 15 -7 5 -8 13 -2 25 6 10 6 23 1 31 -5 8 -6 19 -2 24 9
15 9 177 0 183 -5 2 -5 10 -1 16 10 17 11 47 1 47 -5 0 -6 5 -2 12 10 16 11
239 1 245 -4 2 -4 10 0 16 10 17 11 47 1 47 -5 0 -6 5 -2 12 10 16 11 239 1
245 -4 2 -4 10 0 16 10 17 11 47 1 47 -5 0 -6 5 -2 12 10 16 11 239 1 245 -4
2 -4 10 0 16 10 17 11 47 1 47 -5 0 -6 5 -2 12 10 17 11 109 1 115 -4 2 -3 11
3 18 8 9 8 15 0 20 -6 3 -7 12 -3 18 11 18 12 36 2 43 -5 3 -5 13 -1 22 10 20
9 152 0 167 -4 6 -3 17 2 25 5 9 5 19 -2 27 -6 7 -6 13 -2 13 11 0 11 110 1
127 -4 6 -3 15 3 18 8 5 8 11 0 20 -7 8 -7 15 -1 19 8 5 8 27 1 46 -1 3 -1 10
0 15 7 32 6 65 -2 65 -6 0 -5 7 2 15 10 12 10 15 -1 15 -9 0 -10 3 -4 8 12 8
13 32 2 49 -4 6 -3 14 2 17 10 7 9 25 -2 44 -5 7 -3 12 5 12 9 0 9 3 -2 10 -9
6 -10 10 -3 10 7 0 10 9 7 23 -7 28 -7 36 0 64 2 13 0 25 -5 29 -6 4 -6 10 1
19 8 9 8 15 0 20 -6 3 -7 12 -3 18 11 18 12 36 2 43 -5 3 -5 13 -1 22 10 20 9
152 0 167 -4 6 -3 17 2 25 5 9 5 19 -2 27 -6 7 -6 13 -2 13 11 0 11 110 1 127
-4 6 -3 15 3 18 8 5 8 11 0 20 -7 8 -7 15 -1 19 8 5 8 27 1 46 -1 3 -1 10 0
15 7 32 6 65 -2 65 -6 0 -5 7 2 15 10 12 10 15 -1 15 -9 0 -10 3 -4 8 12 8 13
32 2 49 -4 6 -3 14 2 17 10 7 9 25 -2 44 -5 7 -3 12 5 12 9 0 9 3 -2 10 -9 6
-10 10 -3 10 7 0 10 9 7 23 -7 28 -7 36 0 64 2 13 0 25 -5 29 -6 4 -6 10 1 19
8 9 8 15 0 20 -6 3 -7 12 -3 18 11 18 12 36 2 43 -5 3 -5 13 -1 22 10 20 9
152 0 167 -4 6 -3 17 2 25 5 9 5 19 -2 27 -6 7 -6 13 -2 13 11 0 11 110 1 127
-4 6 -3 15 3 18 8 5 8 11 0 20 -7 8 -7 15 -1 19 10 7 10 24 -2 43 -4 6 -3 14
1 17 5 3 8 23 7 45 -1 22 2 38 7 35 4 -3 8 -12 8 -20z m1260 -6489 c668 0
1220 4 1227 8 6 4 14 4 16 0 3 -5 65 -8 137 -8 l132 1 -28 -23 c-16 -13 -37
-26 -46 -29 -10 -3 -18 -10 -18 -15 0 -5 -5 -9 -11 -9 -6 0 -25 -11 -43 -25
-17 -14 -36 -29 -41 -34 -6 -4 -15 -10 -20 -12 -29 -13 -115 -73 -115 -81 0
-5 -4 -7 -9 -3 -6 3 -14 -3 -20 -12 -5 -10 -13 -18 -18 -17 -11 1 -87 -47 -91
-57 -2 -5 -10 -9 -18 -9 -8 0 -14 -3 -14 -8 0 -4 -17 -16 -37 -27 -20 -11 -41
-24 -47 -30 -6 -5 -31 -23 -56 -40 -25 -16 -48 -34 -51 -38 -3 -5 -9 -7 -12
-5 -3 1 -17 -7 -31 -19 -15 -13 -31 -23 -36 -23 -6 0 -13 -7 -16 -15 -4 -8
-10 -12 -15 -9 -5 3 -9 0 -9 -5 0 -6 -6 -11 -13 -11 -8 0 -22 -9 -32 -20 -10
-11 -22 -20 -27 -20 -5 0 -18 -9 -30 -20 -12 -11 -28 -20 -35 -20 -7 0 -13 -3
-13 -8 0 -4 -16 -16 -35 -26 -19 -11 -35 -23 -35 -28 0 -4 -6 -8 -13 -8 -7 0
-23 -9 -35 -20 -12 -11 -25 -20 -29 -20 -4 0 -21 -11 -37 -25 -16 -14 -35 -25
-41 -25 -7 0 -15 -7 -19 -15 -3 -8 -11 -15 -19 -15 -7 0 -22 -8 -33 -17 -11
-10 -80 -58 -154 -108 -74 -49 -139 -93 -145 -98 -5 -4 -25 -18 -44 -30 -68
-43 -260 -171 -276 -185 -5 -4 -31 -21 -57 -37 -27 -17 -48 -33 -48 -37 0 -5
-4 -8 -9 -8 -9 0 -87 -49 -116 -72 -5 -5 -32 -23 -60 -40 -27 -18 -52 -35 -55
-38 -13 -14 -130 -90 -139 -90 -6 0 -14 -6 -18 -13 -4 -8 -27 -24 -50 -37 -24
-13 -43 -27 -43 -32 0 -4 -4 -8 -9 -8 -5 0 -56 -33 -115 -72 -59 -40 -114 -77
-123 -83 -9 -5 -26 -18 -37 -27 -23 -21 -42 -23 -52 -6 -4 6 -3 8 3 5 11 -7
11 102 0 120 -4 7 -3 14 2 17 10 7 9 25 -2 44 -5 7 -3 12 5 12 9 0 9 3 -2 10
-9 6 -10 10 -3 10 12 0 10 30 -3 52 -5 7 -3 8 7 3 12 -8 12 -6 0 8 -7 10 -9
17 -3 17 11 0 10 25 -1 36 -3 4 -3 12 1 18 10 16 9 30 -3 38 -6 5 -6 8 2 8 9
0 11 19 3 40 -1 3 -1 10 0 15 8 30 4 165 -5 165 -7 0 -7 3 0 8 6 4 10 14 10
22 0 8 -4 18 -10 22 -7 5 -6 8 1 8 11 0 11 70 0 89 -4 6 -3 11 3 11 10 0 9 25
-2 36 -4 4 -3 12 2 18 14 17 14 28 -1 37 -8 6 -9 9 -1 9 9 0 11 19 3 40 -1 3
-1 10 0 15 7 32 6 65 -2 65 -6 0 -5 7 2 15 10 12 10 15 -1 15 -9 0 -10 3 -4 8
13 9 16 42 3 42 -5 0 -6 6 -1 13 11 17 10 41 -2 49 -6 5 -5 8 4 8 10 0 11 3 3
13 -7 8 -7 18 -2 27 5 8 4 22 -2 33 -8 15 -7 18 4 11 11 -6 11 -5 -1 9 -7 10
-9 17 -3 17 11 0 10 25 -1 36 -4 4 -3 12 2 18 14 17 14 28 -1 37 -8 6 -9 9 -1
9 12 0 12 24 0 36 -3 4 -3 14 1 23 10 19 9 152 0 166 -4 6 -3 17 2 25 5 9 5
19 -2 27 -6 7 -6 13 -2 13 11 0 11 110 1 127 -4 6 -3 15 3 18 8 5 8 11 0 20
-8 9 -8 15 0 20 6 3 8 11 5 16 -5 8 16 14 38 10 4 0 7 5 7 12 0 7 3 8 8 2 5
-7 411 -10 1222 -10z m3233 -245 c9 -11 17 -23 17 -26 0 -8 82 -128 93 -135 5
-3 7 -8 6 -10 -4 -5 78 -127 98 -147 7 -7 13 -20 13 -28 0 -8 5 -14 10 -14 6
0 10 -7 10 -15 0 -7 6 -18 13 -22 6 -4 18 -20 26 -35 8 -15 23 -37 33 -48 10
-11 16 -20 13 -20 -3 0 12 -24 33 -52 21 -29 56 -81 77 -115 22 -35 43 -63 48
-63 4 0 7 -5 7 -12 0 -13 80 -131 92 -136 5 -2 6 -8 2 -13 -3 -5 2 -12 10 -15
9 -3 16 -10 16 -15 0 -12 181 -283 192 -287 4 -2 8 -9 8 -15 0 -13 80 -130 92
-135 5 -2 6 -8 2 -13 -3 -5 2 -12 10 -15 9 -3 16 -12 16 -20 0 -8 5 -14 11
-14 5 0 8 -4 5 -8 -3 -5 6 -20 20 -35 13 -14 24 -29 24 -32 0 -11 167 -255
172 -250 2 3 5 -1 5 -8 0 -15 62 -110 75 -115 4 -2 8 -10 8 -18 0 -8 5 -14 11
-14 5 0 8 -4 5 -8 -3 -5 6 -20 20 -35 13 -14 24 -29 24 -32 0 -9 62 -99 74
-107 7 -5 7 -8 1 -8 -5 0 -2 -7 9 -15 26 -20 11 -36 -30 -32 -19 3 -34 0 -34
-5 0 -5 -6 -6 -12 -2 -19 12 -48 12 -48 0 0 -7 -3 -7 -8 -1 -4 6 -25 10 -47
10 -22 0 -43 -4 -47 -10 -5 -7 -8 -7 -8 0 0 6 -11 10 -25 10 -14 0 -25 -4 -25
-10 0 -7 -3 -7 -8 0 -9 12 -92 14 -92 2 0 -4 -6 -5 -12 -1 -19 12 -48 12 -48
0 0 -7 -3 -7 -8 -1 -4 6 -25 10 -47 10 -22 0 -43 -4 -47 -10 -5 -7 -8 -7 -8 0
0 6 -11 10 -25 10 -14 0 -25 -4 -25 -10 0 -7 -3 -7 -8 0 -9 12 -92 14 -92 2 0
-4 -6 -5 -12 -1 -19 12 -48 12 -48 0 0 -7 -3 -7 -8 -1 -4 6 -25 10 -47 10 -22
0 -43 -4 -47 -10 -5 -7 -8 -7 -8 0 0 6 -11 10 -25 10 -14 0 -25 -4 -25 -10 0
-7 -3 -7 -8 0 -9 12 -92 14 -92 2 0 -4 -6 -5 -12 -1 -19 12 -48 12 -48 0 0 -7
-3 -7 -8 -1 -4 6 -25 10 -47 10 -22 0 -43 -4 -47 -10 -5 -7 -8 -7 -8 0 0 6
-11 10 -25 10 -14 0 -25 -4 -25 -10 0 -7 -3 -7 -8 0 -9 12 -92 14 -92 2 0 -4
-6 -5 -12 -1 -19 12 -48 12 -48 0 0 -7 -3 -7 -8 -1 -4 6 -25 10 -47 10 -22 0
-43 -4 -47 -10 -5 -7 -8 -7 -8 0 0 6 -11 10 -25 10 -14 0 -25 -4 -25 -10 0 -7
-3 -7 -8 0 -9 12 -92 14 -92 2 0 -4 -6 -5 -12 -1 -19 12 -48 12 -48 0 0 -7 -3
-7 -8 -1 -9 13 -92 14 -92 0 0 -6 -3 -7 -8 0 -4 6 -16 10 -27 10 -11 0 -23 -4
-27 -10 -5 -7 -8 -6 -8 1 0 9 -59 11 -95 4 -5 -1 -12 -1 -15 0 -16 6 -180 4
-180 -3 0 -5 -5 -5 -11 -1 -10 6 -249 10 -274 4 -5 -1 -12 -1 -15 0 -16 6
-180 4 -180 -3 0 -5 -5 -5 -11 -1 -10 6 -249 10 -274 4 -5 -1 -12 -1 -15 0
-16 6 -180 4 -180 -3 0 -5 -5 -5 -11 -1 -10 6 -249 10 -274 4 -5 -1 -12 -1
-15 0 -16 6 -180 4 -180 -3 0 -5 -5 -5 -11 -1 -10 6 -249 10 -274 4 -5 -1 -12
-1 -15 0 -16 6 -180 4 -180 -3 0 -5 -5 -5 -11 -1 -10 6 -249 10 -274 4 -5 -1
-12 -1 -15 0 -14 6 -180 4 -180 -2 0 -4 -7 -5 -15 -2 -24 9 -18 17 35 49 28
16 50 33 50 38 0 4 5 5 10 2 6 -3 13 1 16 9 3 9 10 16 15 16 12 0 73 42 77 53
2 4 10 7 18 7 8 0 14 5 14 10 0 6 4 10 10 10 5 0 32 16 59 35 26 19 53 35 59
35 6 0 12 5 14 11 2 6 20 21 39 33 93 55 169 109 169 119 0 5 3 8 6 4 4 -3 21
5 39 18 17 14 37 25 43 25 7 0 12 3 12 8 0 4 25 23 55 42 30 19 55 39 55 43 0
5 4 6 9 2 5 -3 16 4 24 15 7 11 16 18 19 15 3 -3 17 6 31 19 14 13 28 22 30
20 2 -3 10 2 17 11 7 8 19 15 26 15 8 0 14 5 14 10 0 6 7 10 15 10 8 0 15 5
15 10 0 6 8 14 18 18 38 16 101 65 95 75 -3 5 -1 7 5 3 12 -7 82 31 82 46 0 5
5 6 10 3 6 -3 10 -1 10 4 0 6 7 11 15 11 8 0 15 5 15 10 0 6 4 10 10 10 8 0
97 57 110 70 3 3 29 21 58 39 28 18 52 38 52 44 0 6 3 8 6 4 3 -3 28 10 55 29
27 19 53 34 59 34 5 0 10 3 10 8 0 4 27 24 60 46 33 21 60 43 60 49 0 6 3 7 7
4 3 -4 21 4 39 18 18 14 37 25 43 25 6 0 11 4 11 8 0 5 17 18 38 29 20 12 46
30 57 40 11 11 24 19 28 20 5 0 38 21 73 47 35 25 69 46 74 46 6 0 10 5 10 10
0 6 5 10 10 10 10 0 22 8 55 38 7 6 16 12 20 12 15 0 74 48 67 55 -4 5 -2 5 5
2 6 -4 18 0 26 8 9 8 20 15 26 15 6 0 11 5 11 10 0 6 7 10 15 10 8 0 15 5 15
10 0 6 7 10 15 10 8 0 15 5 15 10 0 6 7 10 15 10 8 0 15 5 15 10 0 6 6 10 14
10 7 0 25 11 40 25 14 13 30 25 34 25 14 2 112 73 112 82 0 5 4 7 9 4 5 -3 14
1 21 9 7 8 18 15 25 15 8 0 15 3 17 8 2 4 30 25 63 47 33 21 62 41 65 44 3 4
39 28 80 56 41 27 78 54 82 59 4 6 8 7 8 3 0 -5 7 -2 15 5 25 23 39 33 65 46
14 7 43 26 65 42 48 35 46 35 68 10z"/>
</g>
</svg>
